<svg width="26" height="18" viewBox="0 0 26 18" fill="none" xmlns="http://www.w3.org/2000/svg">
<path d="M7.50218 13.75H15.0022C17.0725 13.75 18.7522 12.0703 18.7522 10H20.0022C22.76 10 25.0022 7.75781 25.0022 5C25.0022 2.24219 22.76 0 20.0022 0H4.68968C4.17015 0 3.75218 0.417969 3.75218 0.9375V10C3.75218 12.0703 5.43187 13.75 7.50218 13.75ZM20.0022 2.5C21.3811 2.5 22.5022 3.62109 22.5022 5C22.5022 6.37891 21.3811 7.5 20.0022 7.5H18.7522V2.5H20.0022ZM21.8655 17.5H1.8889C0.0295279 17.5 -0.49391 15 0.482653 15H23.2678C24.2444 15 23.7287 17.5 21.8655 17.5Z" fill="#6F4E37"/>
</svg>
